<?xml version="1.0" standalone="no"?>
<!DOCTYPE svg PUBLIC "-//W3C//DTD SVG 20010904//EN"
 "http://www.w3.org/TR/2001/REC-SVG-20010904/DTD/svg10.dtd">
<svg version="1.0" xmlns="http://www.w3.org/2000/svg"
 width="1920.000000pt" height="230.000000pt" viewBox="0 0 1920.000000 230.000000"
 preserveAspectRatio="xMidYMid meet">

<g transform="translate(0.000000,230.000000) scale(0.100000,-0.100000)"
fill="#000000" stroke="none">
<path d="M694 1766 c-46 -20 -75 -65 -135 -209 -30 -70 -64 -138 -76 -152 -13
-13 -23 -28 -23 -33 0 -5 -8 -16 -17 -23 -15 -12 -16 -12 -8 1 6 11 4 11 -11
-2 -10 -9 -33 -22 -49 -28 -35 -14 -136 -29 -130 -20 2 3 -9 11 -26 17 -18 7
-27 7 -23 1 3 -5 -25 6 -62 25 -90 46 -116 54 -108 33 3 -9 9 -16 13 -16 4 0
40 -20 81 -45 103 -62 152 -76 221 -62 126 24 192 106 275 341 49 142 67 163
142 165 12 1 22 6 22 11 0 14 -49 12 -86 -4z"/>
<path d="M4634 1766 c-46 -20 -75 -65 -135 -209 -30 -70 -64 -138 -76 -152
-13 -13 -23 -28 -23 -33 0 -5 -8 -16 -17 -23 -15 -12 -16 -12 -8 1 6 11 4 11
-11 -2 -10 -9 -33 -22 -49 -28 -35 -14 -136 -29 -130 -20 2 3 -9 11 -26 17
-18 7 -27 7 -23 1 3 -5 -25 6 -62 25 -90 46 -116 54 -108 33 3 -9 9 -16 13
-16 4 0 40 -20 81 -45 103 -62 152 -76 221 -62 126 25 192 107 275 341 49 142
67 163 142 165 12 1 22 6 22 11 0 14 -49 12 -86 -4z"/>
<path d="M8574 1766 c-46 -20 -75 -65 -135 -209 -30 -70 -64 -138 -76 -152
-13 -13 -23 -28 -23 -33 0 -5 -8 -16 -17 -23 -15 -12 -16 -12 -8 1 6 11 4 11
-11 -2 -10 -9 -33 -22 -49 -28 -35 -14 -136 -29 -130 -20 2 3 -9 11 -26 17
-18 7 -27 7 -23 1 3 -5 -25 6 -62 25 -90 46 -116 54 -108 33 3 -9 9 -16 13
-16 4 0 40 -20 81 -45 103 -62 152 -76 221 -62 126 25 192 107 275 341 49 142
67 163 142 165 12 1 22 6 22 11 0 14 -49 12 -86 -4z"/>
<path d="M12514 1766 c-46 -20 -75 -65 -135 -209 -30 -70 -65 -140 -79 -154
-14 -15 -25 -31 -25 -35 0 -4 -6 -13 -14 -20 -12 -11 -13 -10 -6 2 7 11 4 11
-11 -2 -10 -9 -33 -22 -49 -28 -35 -14 -136 -29 -130 -20 2 3 -9 11 -26 17
-18 7 -27 7 -23 1 3 -5 -25 6 -62 25 -90 46 -116 54 -108 33 3 -9 9 -16 13
-16 4 0 40 -20 81 -45 104 -63 152 -76 221 -61 129 28 189 101 269 328 22 61
46 121 55 134 13 20 45 44 60 44 3 0 16 0 30 0 14 0 25 5 25 10 0 14 -49 12
-86 -4z"/>
<path d="M16454 1766 c-46 -20 -75 -65 -135 -209 -30 -70 -65 -140 -79 -154
-14 -15 -25 -31 -25 -35 0 -4 -6 -13 -14 -20 -12 -11 -13 -10 -6 2 7 11 4 11
-11 -2 -10 -9 -33 -22 -49 -28 -35 -14 -136 -29 -130 -20 2 3 -9 11 -26 17
-18 7 -27 7 -23 1 3 -5 -25 6 -62 25 -90 46 -116 54 -108 33 3 -9 9 -16 13
-16 4 0 40 -20 81 -45 104 -63 152 -76 221 -61 127 27 193 106 265 318 57 167
71 184 152 187 12 1 22 6 22 11 0 14 -49 12 -86 -4z"/>
<path d="M932 1709 c28 -30 55 -72 68 -107 46 -123 171 -298 221 -307 10 -2
28 -9 40 -16 32 -17 132 -13 172 6 36 17 102 89 157 170 l33 50 -43 -40 c-41
-37 -42 -38 -26 -10 10 17 -7 2 -38 -31 -83 -92 -146 -111 -255 -78 -67 20
-131 81 -191 184 -24 41 -50 81 -57 88 -7 8 -10 18 -7 24 4 7 2 8 -4 4 -7 -4
-12 -3 -12 2 0 12 -89 112 -99 112 -4 0 14 -23 41 -51z"/>
<path d="M4872 1709 c28 -30 55 -72 68 -107 46 -123 171 -298 221 -307 10 -2
28 -9 40 -16 32 -17 132 -13 172 6 36 17 102 89 157 170 l33 50 -43 -40 c-40
-37 -42 -38 -25 -10 10 17 -11 0 -46 -37 -85 -89 -140 -105 -248 -72 -67 20
-131 81 -191 184 -24 41 -50 81 -57 88 -7 8 -10 18 -7 24 4 7 2 8 -4 4 -7 -4
-12 -3 -12 2 0 12 -89 112 -99 112 -4 0 14 -23 41 -51z"/>
<path d="M8784 1739 c34 -27 83 -99 101 -148 36 -102 170 -287 214 -296 11 -2
30 -9 42 -16 32 -17 132 -13 172 6 36 17 102 89 157 170 l33 50 -29 -27 c-34
-31 -54 -37 -33 -10 7 9 -16 -13 -51 -50 -86 -88 -141 -104 -247 -73 -69 20
-129 76 -188 176 -27 46 -55 90 -62 97 -7 8 -10 18 -7 24 4 7 2 8 -4 4 -7 -4
-12 -3 -12 2 0 14 -90 112 -102 112 -6 0 1 -9 16 -21z"/>
<path d="M12724 1739 c34 -27 83 -99 101 -148 36 -102 170 -287 214 -296 11
-2 30 -9 42 -16 32 -17 132 -13 172 6 36 17 101 87 157 169 30 44 23 57 -8 14
-7 -10 -18 -18 -24 -18 -6 0 -5 7 3 18 8 9 -15 -13 -51 -49 -87 -89 -142 -105
-247 -74 -69 20 -129 76 -188 176 -27 46 -55 90 -62 97 -7 8 -10 18 -7 24 4 7
2 8 -4 4 -7 -4 -12 -3 -12 2 0 14 -90 112 -102 112 -6 0 1 -9 16 -21z"/>
<path d="M16683 1717 c41 -41 55 -64 96 -157 55 -123 156 -256 201 -265 10 -2
29 -9 41 -16 32 -17 132 -13 172 6 36 17 101 87 157 169 30 44 23 57 -8 14 -7
-10 -18 -18 -24 -18 -6 0 -5 7 3 18 8 9 -15 -13 -51 -49 -87 -89 -142 -105
-247 -74 -69 20 -129 76 -188 176 -27 46 -55 90 -62 97 -7 8 -10 18 -7 24 4 7
2 8 -4 4 -7 -4 -12 -3 -12 1 0 12 -90 113 -101 113 -4 0 11 -19 34 -43z"/>
<path d="M2430 1656 c0 -2 8 -10 18 -17 15 -13 16 -12 3 4 -13 16 -21 21 -21
13z"/>
<path d="M6370 1656 c0 -2 8 -10 18 -17 15 -13 16 -12 3 4 -13 16 -21 21 -21
13z"/>
<path d="M10310 1656 c0 -2 8 -10 18 -17 15 -13 16 -12 3 4 -13 16 -21 21 -21
13z"/>
<path d="M14250 1656 c0 -2 8 -10 18 -17 15 -13 16 -12 3 4 -13 16 -21 21 -21
13z"/>
<path d="M18190 1656 c0 -2 8 -10 18 -17 15 -13 16 -12 3 4 -13 16 -21 21 -21
13z"/>
<path d="M2210 1626 c-14 -8 -28 -12 -32 -10 -5 3 -8 0 -8 -5 0 -6 -3 -10 -7
-9 -5 2 -24 -9 -44 -24 -77 -59 -165 -72 -264 -38 -72 25 -80 25 -35 -1 l35
-20 -45 6 -45 6 30 -25 c63 -54 169 -70 247 -39 35 14 129 86 208 159 13 12
13 14 0 14 -8 -1 -26 -7 -40 -14z"/>
<path d="M6150 1626 c-14 -8 -28 -12 -32 -10 -5 3 -8 0 -8 -5 0 -6 -3 -10 -7
-9 -5 2 -24 -9 -44 -24 -77 -59 -165 -72 -264 -38 -72 25 -80 25 -35 -1 l35
-20 -45 6 -45 6 30 -25 c63 -54 169 -70 247 -39 35 14 129 86 208 159 13 12
13 14 0 14 -8 -1 -26 -7 -40 -14z"/>
<path d="M10090 1626 c-14 -8 -28 -12 -33 -9 -4 2 -26 -11 -48 -31 -78 -66
-171 -82 -274 -46 -72 25 -80 25 -35 -1 l35 -20 -45 7 c-40 6 -43 5 -31 -9 26
-32 117 -67 173 -67 70 1 122 25 210 101 105 88 105 89 88 89 -8 -1 -26 -7
-40 -14z"/>
<path d="M14030 1626 c-14 -8 -28 -12 -33 -9 -4 2 -26 -11 -48 -31 -78 -66
-171 -82 -274 -46 -72 25 -80 25 -35 -1 l35 -20 -45 7 c-40 6 -43 5 -31 -9 26
-32 117 -67 173 -67 70 1 122 25 210 101 105 88 105 89 88 89 -8 -1 -26 -7
-40 -14z"/>
<path d="M17970 1626 c-14 -8 -28 -12 -33 -9 -4 2 -26 -11 -48 -31 -78 -66
-171 -82 -274 -46 -72 25 -80 25 -35 -1 l35 -20 -45 7 c-40 6 -43 5 -31 -9 26
-32 117 -67 173 -67 85 1 132 29 298 177 13 11 13 13 0 13 -8 -1 -26 -7 -40
-14z"/>
<path d="M2480 1590 c6 -11 13 -20 16 -20 2 0 0 9 -6 20 -6 11 -13 20 -16 20
-2 0 0 -9 6 -20z"/>
<path d="M6420 1590 c6 -11 13 -20 16 -20 2 0 0 9 -6 20 -6 11 -13 20 -16 20
-2 0 0 -9 6 -20z"/>
<path d="M6450 1540 c6 -11 13 -20 16 -20 2 0 0 9 -6 20 -6 11 -13 20 -16 20
-2 0 0 -9 6 -20z"/>
<path d="M10390 1540 c6 -11 13 -20 16 -20 2 0 0 9 -6 20 -6 11 -13 20 -16 20
-2 0 0 -9 6 -20z"/>
<path d="M14330 1540 c6 -11 13 -20 16 -20 2 0 0 9 -6 20 -6 11 -13 20 -16 20
-2 0 0 -9 6 -20z"/>
<path d="M18270 1540 c6 -11 13 -20 16 -20 2 0 0 9 -6 20 -6 11 -13 20 -16 20
-2 0 0 -9 6 -20z"/>
<path d="M1589 1513 l-24 -28 28 24 c25 23 32 31 24 31 -2 0 -14 -12 -28 -27z"/>
<path d="M3208 1533 c18 -2 45 -2 60 0 15 2 0 4 -33 4 -33 0 -45 -2 -27 -4z"/>
<path d="M5529 1513 l-24 -28 28 24 c15 14 27 26 27 28 0 8 -8 1 -31 -24z"/>
<path d="M7148 1533 c18 -2 45 -2 60 0 15 2 0 4 -33 4 -33 0 -45 -2 -27 -4z"/>
<path d="M9469 1513 l-24 -28 28 24 c15 14 27 26 27 28 0 8 -8 1 -31 -24z"/>
<path d="M11088 1533 c18 -2 45 -2 60 0 15 2 0 4 -33 4 -33 0 -45 -2 -27 -4z"/>
<path d="M13409 1513 l-24 -28 28 24 c15 14 27 26 27 28 0 8 -8 1 -31 -24z"/>
<path d="M15028 1533 c18 -2 45 -2 60 0 15 2 0 4 -33 4 -33 0 -45 -2 -27 -4z"/>
<path d="M17349 1513 l-24 -28 28 24 c25 23 32 31 24 31 -2 0 -14 -12 -28 -27z"/>
<path d="M18968 1533 c18 -2 45 -2 60 0 15 2 0 4 -33 4 -33 0 -45 -2 -27 -4z"/>
<path d="M2523 1474 c37 -73 116 -155 180 -187 43 -22 68 -28 123 -28 91 -1
121 13 231 110 66 57 104 82 130 87 20 4 47 13 61 20 39 20 79 -1 158 -83 46
-46 85 -78 110 -86 52 -19 127 -9 234 30 47 17 102 34 123 37 20 4 37 11 37
16 0 17 -81 11 -154 -10 -38 -11 -71 -18 -74 -16 -2 2 32 18 75 35 107 41 81
39 -46 -5 -121 -42 -165 -41 -240 3 -25 15 -48 27 -52 26 -3 -1 -25 14 -49 33
-24 19 -53 36 -64 39 -106 21 -146 11 -218 -53 -29 -26 -46 -38 -38 -28 8 11
-11 -1 -42 -27 -32 -25 -77 -51 -100 -58 -62 -16 -154 -6 -214 24 -49 25 -120
92 -144 136 -6 13 -14 20 -17 17 -4 -3 -13 0 -21 6 -8 7 -4 -9 11 -38z m967
-111 c0 -7 -58 36 -66 49 -4 7 9 -1 29 -16 20 -16 37 -30 37 -33z m173 -10
c-7 -2 -19 -2 -25 0 -7 3 -2 5 12 5 14 0 19 -2 13 -5z m-60 -10 c-7 -2 -21 -2
-30 0 -10 3 -4 5 12 5 17 0 24 -2 18 -5z"/>
<path d="M6463 1474 c37 -73 116 -155 180 -187 43 -22 68 -28 123 -28 91 -1
121 13 231 110 66 57 104 82 130 87 20 4 47 13 61 20 39 20 79 -1 158 -83 46
-46 85 -78 110 -86 52 -19 127 -9 234 30 47 17 102 34 123 37 20 4 37 11 37
16 0 17 -81 11 -154 -10 -38 -11 -71 -18 -74 -16 -2 2 32 18 75 35 106 41 82
39 -47 -5 -126 -43 -169 -42 -246 8 -27 18 -53 31 -57 30 -5 -2 -24 11 -43 28
-19 16 -44 32 -57 34 -106 22 -147 12 -219 -52 -29 -26 -46 -38 -38 -28 8 11
-11 -1 -42 -27 -32 -25 -77 -51 -100 -58 -62 -16 -154 -6 -214 24 -49 25 -120
92 -144 136 -6 13 -14 20 -17 17 -4 -3 -13 0 -21 6 -8 7 -4 -9 11 -38z m967
-111 c0 -7 -56 35 -71 54 -8 9 5 2 29 -17 23 -18 42 -35 42 -37z m173 -10 c-7
-2 -19 -2 -25 0 -7 3 -2 5 12 5 14 0 19 -2 13 -5z m-60 -10 c-7 -2 -21 -2 -30
0 -10 3 -4 5 12 5 17 0 24 -2 18 -5z"/>
<path d="M10409 1463 c69 -130 177 -204 298 -204 90 -1 120 14 230 110 66 57
104 82 130 87 20 4 47 13 61 20 39 20 79 -1 158 -83 46 -46 85 -78 110 -86 52
-19 127 -9 234 30 47 17 102 34 123 37 20 4 37 11 37 16 0 17 -81 11 -154 -10
-38 -11 -71 -18 -74 -16 -2 2 32 18 75 35 106 41 82 39 -47 -5 -126 -43 -169
-42 -246 8 -27 18 -53 31 -57 30 -5 -2 -24 11 -43 28 -19 16 -44 32 -57 34
-106 22 -147 12 -219 -52 -29 -26 -46 -38 -38 -28 8 11 -11 -1 -42 -27 -32
-25 -77 -51 -100 -58 -62 -16 -154 -6 -214 24 -49 25 -120 92 -144 136 -6 13
-14 20 -17 17 -4 -3 -13 0 -21 7 -9 6 -1 -16 17 -50z m961 -100 c0 -7 -56 35
-71 54 -8 9 5 2 29 -17 23 -18 42 -35 42 -37z m173 -10 c-7 -2 -19 -2 -25 0
-7 3 -2 5 12 5 14 0 19 -2 13 -5z m-60 -10 c-7 -2 -21 -2 -30 0 -10 3 -4 5 12
5 17 0 24 -2 18 -5z"/>
<path d="M14349 1463 c70 -131 176 -204 298 -204 90 -1 120 14 230 110 66 57
104 82 130 87 20 4 47 13 61 20 39 20 79 -1 158 -83 46 -46 85 -78 110 -86 52
-19 127 -9 234 30 47 17 102 34 123 37 20 4 37 11 37 16 0 17 -81 11 -154 -10
-38 -11 -71 -18 -73 -16 -5 4 84 42 120 51 15 4 26 10 23 12 -2 3 -54 -12
-114 -33 -128 -43 -170 -42 -248 8 -27 18 -53 31 -57 30 -5 -2 -24 11 -43 28
-19 16 -44 32 -57 34 -106 22 -147 12 -219 -52 -29 -26 -46 -38 -38 -27 9 13
4 11 -15 -6 -17 -15 -50 -39 -74 -55 -40 -26 -53 -29 -130 -29 -73 0 -93 4
-136 27 -50 26 -121 94 -145 137 -6 13 -14 20 -17 17 -4 -3 -13 0 -21 7 -9 6
-1 -16 17 -50z m961 -100 c0 -7 -56 35 -71 54 -8 9 5 2 29 -17 23 -18 42 -35
42 -37z m173 -10 c-7 -2 -19 -2 -25 0 -7 3 -2 5 12 5 14 0 19 -2 13 -5z m-60
-10 c-7 -2 -21 -2 -30 0 -10 3 -4 5 12 5 17 0 24 -2 18 -5z"/>
<path d="M18289 1463 c70 -131 176 -204 298 -204 90 -1 120 14 230 110 66 57
104 82 130 87 20 4 47 13 61 20 35 18 76 1 139 -61 50 -48 54 -50 51 -26 -3
31 -17 53 -29 45 -5 -3 -25 8 -44 25 -20 17 -45 33 -58 35 -106 22 -147 12
-219 -52 -29 -26 -46 -38 -38 -28 8 10 -15 -4 -52 -32 -74 -55 -122 -69 -208
-59 -88 11 -197 86 -240 166 -6 13 -14 20 -17 17 -4 -3 -13 0 -21 7 -9 6 -1
-16 17 -50z"/>
<path d="M0 1434 c0 -7 52 -25 57 -20 2 2 -10 8 -26 14 -17 6 -31 9 -31 6z"/>
<path d="M3900 1430 c36 -4 74 -10 85 -14 11 -3 7 0 -10 8 -16 8 -55 15 -85
14 l-55 -1 65 -7z"/>
<path d="M7840 1430 c36 -4 74 -10 85 -14 11 -3 7 0 -10 8 -16 8 -55 15 -85
14 l-55 -1 65 -7z"/>
<path d="M11780 1430 c36 -4 74 -10 85 -14 11 -3 7 0 -10 8 -16 8 -55 15 -85
14 l-55 -1 65 -7z"/>
<path d="M15683 1433 c15 -2 39 -2 55 0 15 2 2 4 -28 4 -30 0 -43 -2 -27 -4z"/>
<path d="M15785 1420 c27 -12 43 -12 25 0 -8 5 -22 9 -30 9 -10 0 -8 -3 5 -9z"/>
<path d="M134 1361 c4 -6 16 -16 28 -22 15 -8 18 -8 14 0 -4 6 -16 16 -28 22
-15 8 -18 8 -14 0z"/>
<path d="M4074 1361 c4 -6 16 -16 28 -22 15 -8 18 -8 14 0 -4 6 -16 16 -28 22
-15 8 -18 8 -14 0z"/>
<path d="M8014 1361 c4 -6 16 -16 28 -22 15 -8 18 -8 14 0 -4 6 -16 16 -28 22
-15 8 -18 8 -14 0z"/>
<path d="M11954 1361 c4 -6 16 -16 28 -22 15 -8 18 -8 14 0 -4 6 -16 16 -28
22 -15 8 -18 8 -14 0z"/>
<path d="M15894 1361 c4 -6 16 -16 28 -22 15 -8 18 -8 14 0 -4 6 -16 16 -28
22 -15 8 -18 8 -14 0z"/>
</g>
</svg>
